<mxfile host="app.diagrams.net" agent="Mozilla/5.0 (Macintosh; Intel Mac OS X 10_15_7) AppleWebKit/537.36 (KHTML, like Gecko) Chrome/132.0.0.0 Safari/537.36 OPR/117.0.0.0" version="26.1.0">
  <diagram name="Page-1" id="A5z1caCcKkmyoPKwUlwC">
    <mxGraphModel dx="1636" dy="1111" grid="1" gridSize="10" guides="1" tooltips="1" connect="1" arrows="1" fold="1" page="1" pageScale="1" pageWidth="850" pageHeight="1100" math="0" shadow="0">
      <root>
        <mxCell id="0" />
        <mxCell id="1" parent="0" />
        <mxCell id="bSpUJPD-esNp6INdKv9p-6" style="edgeStyle=orthogonalEdgeStyle;rounded=0;orthogonalLoop=1;jettySize=auto;html=1;exitX=1;exitY=0.5;exitDx=0;exitDy=0;entryX=0;entryY=0.5;entryDx=0;entryDy=0;" edge="1" parent="1" source="bSpUJPD-esNp6INdKv9p-1" target="bSpUJPD-esNp6INdKv9p-2">
          <mxGeometry relative="1" as="geometry" />
        </mxCell>
        <mxCell id="bSpUJPD-esNp6INdKv9p-1" value="Observación" style="rounded=0;whiteSpace=wrap;html=1;" vertex="1" parent="1">
          <mxGeometry x="70" y="420" width="120" height="60" as="geometry" />
        </mxCell>
        <mxCell id="bSpUJPD-esNp6INdKv9p-19" style="edgeStyle=orthogonalEdgeStyle;rounded=0;orthogonalLoop=1;jettySize=auto;html=1;exitX=1;exitY=0.5;exitDx=0;exitDy=0;entryX=0;entryY=0.5;entryDx=0;entryDy=0;" edge="1" parent="1" source="bSpUJPD-esNp6INdKv9p-2" target="bSpUJPD-esNp6INdKv9p-8">
          <mxGeometry relative="1" as="geometry" />
        </mxCell>
        <mxCell id="bSpUJPD-esNp6INdKv9p-2" value="" style="whiteSpace=wrap;html=1;aspect=fixed;" vertex="1" parent="1">
          <mxGeometry x="270" y="320" width="260" height="260" as="geometry" />
        </mxCell>
        <mxCell id="bSpUJPD-esNp6INdKv9p-3" value="Datos Crudos" style="rounded=0;whiteSpace=wrap;html=1;" vertex="1" parent="1">
          <mxGeometry x="340" y="350" width="120" height="60" as="geometry" />
        </mxCell>
        <mxCell id="bSpUJPD-esNp6INdKv9p-4" value="Code" style="rounded=0;whiteSpace=wrap;html=1;" vertex="1" parent="1">
          <mxGeometry x="340" y="490" width="120" height="60" as="geometry" />
        </mxCell>
        <mxCell id="bSpUJPD-esNp6INdKv9p-5" value="Simulación" style="rounded=0;whiteSpace=wrap;html=1;" vertex="1" parent="1">
          <mxGeometry x="340" y="420" width="120" height="60" as="geometry" />
        </mxCell>
        <mxCell id="bSpUJPD-esNp6INdKv9p-7" value="Entrada de Datos" style="text;html=1;align=center;verticalAlign=middle;whiteSpace=wrap;rounded=0;" vertex="1" parent="1">
          <mxGeometry x="340" y="320" width="115" height="30" as="geometry" />
        </mxCell>
        <mxCell id="bSpUJPD-esNp6INdKv9p-20" style="edgeStyle=orthogonalEdgeStyle;rounded=0;orthogonalLoop=1;jettySize=auto;html=1;exitX=0.5;exitY=1;exitDx=0;exitDy=0;entryX=0.5;entryY=0;entryDx=0;entryDy=0;" edge="1" parent="1" source="bSpUJPD-esNp6INdKv9p-8" target="bSpUJPD-esNp6INdKv9p-17">
          <mxGeometry relative="1" as="geometry" />
        </mxCell>
        <mxCell id="bSpUJPD-esNp6INdKv9p-8" value="" style="whiteSpace=wrap;html=1;aspect=fixed;" vertex="1" parent="1">
          <mxGeometry x="560" y="320" width="260" height="260" as="geometry" />
        </mxCell>
        <mxCell id="bSpUJPD-esNp6INdKv9p-9" value="Limpieza" style="rounded=0;whiteSpace=wrap;html=1;" vertex="1" parent="1">
          <mxGeometry x="630" y="350" width="120" height="60" as="geometry" />
        </mxCell>
        <mxCell id="bSpUJPD-esNp6INdKv9p-10" value="Code" style="rounded=0;whiteSpace=wrap;html=1;" vertex="1" parent="1">
          <mxGeometry x="630" y="490" width="120" height="60" as="geometry" />
        </mxCell>
        <mxCell id="bSpUJPD-esNp6INdKv9p-11" value="Procesamiento" style="rounded=0;whiteSpace=wrap;html=1;" vertex="1" parent="1">
          <mxGeometry x="630" y="420" width="120" height="60" as="geometry" />
        </mxCell>
        <mxCell id="bSpUJPD-esNp6INdKv9p-12" value="Procesamiento" style="text;html=1;align=center;verticalAlign=middle;whiteSpace=wrap;rounded=0;" vertex="1" parent="1">
          <mxGeometry x="630" y="320" width="115" height="30" as="geometry" />
        </mxCell>
        <mxCell id="bSpUJPD-esNp6INdKv9p-21" style="edgeStyle=orthogonalEdgeStyle;rounded=0;orthogonalLoop=1;jettySize=auto;html=1;exitX=1;exitY=0.5;exitDx=0;exitDy=0;entryX=0;entryY=0.5;entryDx=0;entryDy=0;" edge="1" parent="1" source="bSpUJPD-esNp6INdKv9p-13" target="bSpUJPD-esNp6INdKv9p-18">
          <mxGeometry relative="1" as="geometry" />
        </mxCell>
        <mxCell id="bSpUJPD-esNp6INdKv9p-13" value="" style="whiteSpace=wrap;html=1;aspect=fixed;" vertex="1" parent="1">
          <mxGeometry x="560" y="630" width="260" height="260" as="geometry" />
        </mxCell>
        <mxCell id="bSpUJPD-esNp6INdKv9p-14" value="Analisis de datos" style="rounded=0;whiteSpace=wrap;html=1;" vertex="1" parent="1">
          <mxGeometry x="630" y="660" width="120" height="60" as="geometry" />
        </mxCell>
        <mxCell id="bSpUJPD-esNp6INdKv9p-15" value="Code" style="rounded=0;whiteSpace=wrap;html=1;" vertex="1" parent="1">
          <mxGeometry x="630" y="800" width="120" height="60" as="geometry" />
        </mxCell>
        <mxCell id="bSpUJPD-esNp6INdKv9p-16" value="Resultados" style="rounded=0;whiteSpace=wrap;html=1;" vertex="1" parent="1">
          <mxGeometry x="630" y="730" width="120" height="60" as="geometry" />
        </mxCell>
        <mxCell id="bSpUJPD-esNp6INdKv9p-17" value="Analisis" style="text;html=1;align=center;verticalAlign=middle;whiteSpace=wrap;rounded=0;" vertex="1" parent="1">
          <mxGeometry x="630" y="630" width="115" height="30" as="geometry" />
        </mxCell>
        <mxCell id="bSpUJPD-esNp6INdKv9p-18" value="Salida" style="rounded=0;whiteSpace=wrap;html=1;" vertex="1" parent="1">
          <mxGeometry x="900" y="730" width="120" height="60" as="geometry" />
        </mxCell>
      </root>
    </mxGraphModel>
  </diagram>
</mxfile>
